<?xml version="1.0" encoding="utf-8"?>
<!-- Generator: Adobe Illustrator 24.1.0, SVG Export Plug-In . SVG Version: 6.00 Build 0)  -->
<svg version="1.1" id="Ebene_1" xmlns="http://www.w3.org/2000/svg" xmlns:xlink="http://www.w3.org/1999/xlink" x="0px" y="0px"
	 viewBox="0 0 338 441.7" style="enable-background:new 0 0 338 441.7;" xml:space="preserve">
<path id="incisor_central" d="M144,435.2c0,0-7.1-23.6-7-32s1-16,1-16s0.3-6,4-5s10.3,2.8,14,3s6.9,1.4,9,5s2,3,2,3s2.1-5.6,6-7
	s7.7-1,10-2s6.3-4.2,8-2s2.7,4.6,3,8s1.5,10.8,0,21s-5.3,24.6-7,27s-10.3,5.6-15-6s-5-11-5-11s-7.3,17.8-13,18
	C148.3,439.4,144,435.2,144,435.2z M127,25.2c0,0-0.5,18.4-1,22s-1,11,8,10s17.8-1.8,21-2c12-0.8,17-2.2,17-7c0,0,0.5,4.2,6,5
	s18,2,18,2l12,1c0,0,6-0.5,7-3s2.5-2.6,2-9s-2.3-12.1-4-16s-5.2-13.3-9-18s-6.8-11.5-16-10s-14.2,7.2-16,15s-1,18-1,18
	S159.9,6,152,4.2c-8.3-1.9-17.5-3.3-21,8S127,25.2,127,25.2z"/>
<path id="incisor_lateral" d="M113,388.2l1,26c0,0,0.3,11.1,4,18s9.8,13.9,15,6s7-12,7-12l2-2c0,0-4-13.4-3-37c0,0-2.2-5.6-6-6
	s-10.8-0.4-13-1s-7-1.1-7,3C113,387.3,113,388.2,113,388.2z M195,386.2c0,0-2.4,34.9-1,40c1,3.6,5.8,10.2,8,12s7.8,3.9,11-2
	s5.5-13.9,6-18s2.3-12.1,2-16s-1-18-1-18s0-6.8-5-6s-15,2-15,2S194.4,381.9,195,386.2z M91,41.2c0,0,3.5-18.4,7-23s9.2-7.1,14-7
	s11.7,1.9,14,10s2.2,21.4,0,26s-4,7.1-14,10c-5.6,1.6-13.5,2.6-16,2s-4.5,0.1-5-7S91,41.2,91,41.2z M212,15.2c0,0,5.2-8.4,13-5
	s14,5.4,18,16s4.9,14.6,6,32c0,0-1,1.9-3,3c-1.3,0.7-4.4,0.9-8,1c-9,0.4-11,0-11,0s-8.3-1.6-9-8s1.5-6.9,0-14s-5-14.4-7-18
	S212,15.2,212,15.2z"/>
<path id="canine" d="M86,383.2c0,0-2.2,23.1,0,38s3.8,17.6,6.9,18s10.6-3.4,13.1-7s4.6-6.9,6.1-14.1s1.1-31.4,0-35.2
	c-1.1-3.8-3.4-11.5-12.1-12.1C91.2,370.1,88.2,371.6,86,383.2z M221.2,383.8c0,0-0.5-4.1,2-8.1c2.5-3.9,4.4-6,8.1-7
	c3.7-1,12.3-5,15.2,6c2.8,11,4.6,24.1,3,42.3c-1.5,18.2-1.7,17.4-6.1,20.1c-4.4,2.7-15.1-5-17.2-10.1c-2.1-5.1-6.1-11.1-6.1-11.1
	L221.2,383.8z M59,38.2c0,0-1,15.1-1,32c0,1.6,2.8,6,7.3,3.9s13.1-5.8,15.7-6.9c4.2-1.8,8.5-6.9,9-12c1.3-13.6,3-22.8,3-26
	s-7.8-13.1-14-13s-13.5,2.4-16,10S59,38.2,59,38.2z M248,30.2c0,0,8-10.4,16-10s15.7,5.6,16,14s2,30.6,2,35s0.2,10.9-7,8
	s-19.3-8.6-23-12s-2.8-4.1-3-7s1-15.4-1-20S248,30.2,248,30.2z"/>
<path id="premolars" d="M48,391.2c0,0-0.6,12,2,16s8,10,8,10s3.1,0.5,4,0c0,0,6.9,13.8,12,16s10.1,2.5,12-3s1-6,1-6s-1.1-44.7,0-47
	s4-5,4-5l-3-4c0,0-3.1-2.2-7-2s-6.9-0.5-9,1s-6.6,1.1-10,1s-8,2-8,2s-4.4,4.8-5,10C48.4,385.4,48,391.2,48,391.2z M247,375.2
	c0,0,0.4-3.4,2-5c0,0-1.8-4.2,2-8s6-5,6-5s1.1-0.9,5-1s6.9,1.1,10,1s12.9,0,15,1s5.1,5.8,6,10s3.1,18.1,1,25s-7.8,13-10,14s-7,0-7,0
	l-6,15c0,0-5.8,8.5-9,9c0,0-8.1-0.7-12-13l0.1-23L247,375.2z M24,81.2c0,0,2.2,14.9,4,19s5,12.8,11.2,12.2s7.7-1.9,13.3-1.5
	s11,3.7,14.5,1.3c3.5-2.4,6-4.4,6-9s-1-6-1-6s4.2-1.7,6-4c2.8-3.6,5-9.9,5-13s2.2-4.9,1-8s-3-5-3-5l-16,7c0,0-6.8,2.1-7-6s1-26,1-26
	s2-3.4-2-4s-11,0-11,0s-5.5,5.1-7,8s-2.8,10.4-3,12c0,0-3.3-1.1-5,1s-6.5,9.1-7,12S24,81.2,24,81.2z M259,70.2c0,0-3.5,6.1-3,10
	s1,11.4,3,15s6.7,4.6,8,6c0,0-2.8,6.9,0,10s5,5,5,5s5.5,0.9,11,0s4.5-1.1,8-1s11.8,1.9,15-1c3.9-3.5,9.2-19.1,10-28
	c0.6-7.2-1.8-12.6-4-18s-6.3-4.9-8-6c0,0-2,1.6-3-5s-2.5-15.4-11-15s-10,0-10,0l2,26c0,0,0.7,9.9-3,10S259,70.2,259,70.2z"/>
<path id="molars" d="M10,351.2c0,0,0.5-17.9,6-24s6.5-8.4,12-7s6.2,1.4,9,1s9.2,1.9,9,9c0,0,3.7,0.9,5,3s2.7,7.4,2,9s1.5,1.9,3,3
	s1.2-0.9,2,1s1,2,1,2s7-1.6,8,6c0,0,1.2,2.6,4,3s8.2,6.4,9,9c0,0-8.3,1.6-12,2s-13.8-2.1-17,7s-3.3,25.1-3,27s-6.8,1.9-8,0
	s-11-16-11-16s-1.5-5.9,1-8c0,0-4.5,4.9-7,1C20.5,375.3,10,351.2,10,351.2z M260,356.2c0,0,0.5-3.6,3-5s5.5-0.4,5-2s0.2-3.9,2-6
	s1.7-4.6,2-6s3.5-2.4,4-3s-0.8-7.6,2-10s4.7-0.9,5-2s-0.3-4.9,3-7s1.7-1.9,6-2s5.5-1.1,9-2s9,0.9,12,5s8,13.4,8,19s-3.3,13.9-5,16
	c0,0-5.3,9.9-6,14s-1,5.4-3,6c0,0-1.8,6.4-5,10c0,0-3.3,12.9-6,14c0,0-2-0.4-2-3s0.2-14.6-1-21s-3.8-11.6-5-12s-9.3-2.9-16-2
	S260,356.2,260,356.2z M4,122.2c0,0-3.7,4.4-4,12c-0.3,7.6,1.9,15,3,17s3.7,5.4,9,4s6.7-2,9-1s6.7,3.6,11,3s8.1-1.8,9-5s1-5,1-5l3-2
	v-1c0,0,2.4-1.3,4-3c2.1-2.2,2.9-5,3-6s6.1-5,7-8c0,0,5.5-4,7-7s1-7,1-7s-2.7-0.2-7-1s-7.5-2-14-1s-7.7,2.2-11,0s-3.7-4-6-10
	s-5.3-20.4-6-23c0,0-2.1-1.2-4,3s-4.3,11.8-5,13s-4.9,7-5,9s-3,7-3,7s-1.9,4-2,6C4,118.2,4,122.2,4,122.2z M338,140.2
	c-0.1,2.9-1,13-1,13s-0.1,5.4-5,6s-8.1-2-16,0s-11.2,3.2-16,0c-3-2.1-1.3-4-1-6s-3.4-3.7-4-5s-1.5-1-3-2s-3-2.3-3-4s0.9-2.8-1-4
	s-4.6-2.2-6-6s-3.5-1.9-5-4s-4.4-5.4-5-9s0-3,0-3s7.2,0.3,11,0s6.9-1.5,9-1s9.4,1.6,11,1s4.2-2.9,5-5s4.6-11.5,6-16s1.6-7.4,2-10
	s1-3,1-3s4.2,0.3,6,7s2.2,10.7,4,14s5.2,9,6,13s1.5,9.2,2,11S338.1,137.3,338,140.2z"/>
</svg>
